<svg xmlns="http://www.w3.org/2000/svg" viewBox="0 0 90.63 182.12"><defs><style>.a{fill:#222222;}.b{fill:#f15a29;}.c{fill:#fff;}</style></defs><title>ngc-logo-3</title><rect class="a" width="90.63" height="169.26"/><path class="b" d="M9.14,18.4A36.17,36.17,0,1,0,76.36,0H14.26A36.44,36.44,0,0,0,9.14,18.4Z"/><path class="c" d="M9.35,21.41a15.9,15.9,0,0,0,.94,2.4,16.84,16.84,0,0,0,1.4,2.54A11.41,11.41,0,0,0,14.16,29c.54.45,1.1,1,1.7,1.42s1.21.9,1.81,1.4c1.27,1,2.64,1.94,4.07,2.94s2.92,2,4.46,3,3.09,2,4.67,3,3.15,2,4.73,2.94c.8.45,1.57.93,2.34,1.4l2.3,1.34c.76.42,1.52.83,2.24,1.26l2.16,1.17c1.42.7,2.75,1.41,4,1.9.63.25,1.21.48,1.84.67s1.15.34,1.7.48a19.17,19.17,0,0,0,2.87.47,17.57,17.57,0,0,0,1.89.09,5.75,5.75,0,0,0,.67,0l0,.1a36.11,36.11,0,0,0,7.5-3.74L65,48.9a6.64,6.64,0,0,1-2.23.21,11.65,11.65,0,0,1-3.37-.78c-1.25-.46-2.62-1.07-4.09-1.78-2.94-1.43-6.28-3.26-9.8-5.3s-7.24-4.31-10.89-6.67c-7.3-4.72-14.44-9.7-19.52-13.8a35.25,35.25,0,0,1-3.35-3,8.44,8.44,0,0,1-1.78-3,7.07,7.07,0,0,1-.39-2.06,36.18,36.18,0,0,0-.34,8.62Z"/><path class="c" d="M9.75,11.89l.11,0a4.24,4.24,0,0,0,.07.76,7.8,7.8,0,0,0,.65,2,7.63,7.63,0,0,0,1.92,2.49c.45.4,1,.76,1.61,1.21s1.2.88,1.87,1.34c1.32.92,2.78,1.89,4.32,2.92l4.88,3.19,5.25,3.38c1.78,1.16,3.59,2.33,5.42,3.48l5.44,3.45,5.29,3.3C50,41.55,53.23,43.52,56,45.08c1.4.78,2.68,1.48,3.83,2,.6.27,1.07.43,1.61.7a9.08,9.08,0,0,0,1.35.49,7.6,7.6,0,0,0,2.06.24,2.94,2.94,0,0,0,.74-.1l.06.09A35.89,35.89,0,0,0,70.07,45l-.39.13a9.11,9.11,0,0,1-2.38.35,10.58,10.58,0,0,1-3.66-.66A40.81,40.81,0,0,1,59.19,43c-3.19-1.49-6.78-3.47-10.56-5.7S40.9,32.53,37,29.93c-7.77-5.22-15.35-10.72-20.79-15.17a24.81,24.81,0,0,1-3.54-3.26A6.79,6.79,0,0,1,11.37,8a8.65,8.65,0,0,1,.12-2.31A35.9,35.9,0,0,0,9.75,11.89Z"/><path class="c" d="M55.07,53a19.87,19.87,0,0,1-3-.15,22.34,22.34,0,0,1-3.81-.79,40.51,40.51,0,0,1-4.31-1.61c-1.49-.66-3-1.4-4.63-2.2s-3.2-1.69-4.82-2.62-3.25-1.9-4.85-2.92-3.18-2.07-4.7-3.15-3-2.17-4.41-3.26-2.72-2.2-4-3.26-2.34-2.16-3.31-3.19A14.78,14.78,0,0,1,9.77,24c-.18-.56-.32-1-.41-1.42A36.17,36.17,0,0,0,56.79,52.89,13.57,13.57,0,0,1,55.07,53Z"/><path class="c" d="M29.39,0c.69.51,1.4,1,2.14,1.54,1.64,1.13,3.35,2.36,5.16,3.57l5.58,3.74,5.81,3.8,5.85,3.74c1.92,1.24,3.83,2.44,5.7,3.57s3.64,2.25,5.37,3.25,3.35,1.94,4.88,2.76A39.18,39.18,0,0,0,74.12,28a16.68,16.68,0,0,0,1.84.63,8.26,8.26,0,0,0,1.61.22,3.36,3.36,0,0,0,2.13-.52,1.45,1.45,0,0,0,.5-.57l.1,0A36.29,36.29,0,0,0,76.36,0Z"/><path class="c" d="M79.88,28.59a3.69,3.69,0,0,1-2.29.74,11.44,11.44,0,0,1-3.68-.58,39.63,39.63,0,0,1-4.51-1.68A178.7,178.7,0,0,1,46.87,14.56C42.91,12,39,9.38,35.47,6.81,32.21,4.45,29.23,2.17,26.72,0H14.26l-.33.57.09,0a3.84,3.84,0,0,0-.15.82,5.67,5.67,0,0,0,.22,2.21,6.31,6.31,0,0,0,2,2.62,45.69,45.69,0,0,0,3.67,3c1.41,1,3,2.17,4.62,3.32l5.25,3.62L35.29,20l5.87,3.92,5.89,3.9c1.93,1.3,3.84,2.57,5.71,3.77S56.4,34,58.11,35.08s3.32,2.14,4.84,3a33.6,33.6,0,0,0,4.17,2.31,15.94,15.94,0,0,0,3.48,1.05,5.35,5.35,0,0,0,2.29,0,1.7,1.7,0,0,0,.7-.33c.57-.71,1.12-1.44,1.64-2.21a36.12,36.12,0,0,0,4.94-10.64A2.12,2.12,0,0,1,79.88,28.59Z"/><path class="c" d="M73,41.76a5.7,5.7,0,0,1-2.44.24,16,16,0,0,1-3.68-.83,36,36,0,0,1-4.48-2,256.55,256.55,0,0,1-22.48-13.4c-4-2.61-7.89-5.33-11.51-7.94s-6.93-5.15-9.66-7.46a42.22,42.22,0,0,1-3.57-3.34,9.07,9.07,0,0,1-1.24-1.64,5.35,5.35,0,0,1-.59-1.66,5.46,5.46,0,0,1,.16-2.45v0a36.09,36.09,0,0,0-1.68,3.53l.11,0a5.76,5.76,0,0,0-.11.82A9.1,9.1,0,0,0,12,8a6,6,0,0,0,1.45,3A29.9,29.9,0,0,0,17,13.74c1.41,1,3,2.05,4.63,3.2l5.21,3.52,5.59,3.74c1.89,1.29,3.83,2.58,5.78,3.85l5.79,3.82,5.64,3.63L55,38.79c1.69,1,3.33,2,4.83,2.8A46.22,46.22,0,0,0,64,43.66a15,15,0,0,0,1.76.66,12.45,12.45,0,0,0,1.52.32,11.25,11.25,0,0,0,2.27.06,5,5,0,0,0,.82-.12l0,.06a36.12,36.12,0,0,0,2.74-3Z"/><path class="c" d="M13.84,98.92V90.13h.52L19.44,98V90.13h.49v8.78h-.49l-5.1-7.86v7.86Z"/><path class="c" d="M22.82,98.92l3.26-8.78h.56l3.13,8.78h-.56l-1-2.83H24.4l-1,2.83Zm1.76-3.32h3.47l-1.69-4.81Z"/><path class="c" d="M30.94,90.63v-.49h6.18v.49H34.24v8.29h-.49V90.63Z"/><path class="c" d="M40.15,98.92V90.13h.49v8.78Z"/><path class="c" d="M44.2,97.5a4.53,4.53,0,0,1-.29-1.21,15.34,15.34,0,0,1-.09-1.82A10.56,10.56,0,0,1,44,92.54a5,5,0,0,1,.4-1.32,1.74,1.74,0,0,1,.7-.74,2.65,2.65,0,0,1,.89-.33A6.89,6.89,0,0,1,47,90.07a8.8,8.8,0,0,1,1,0,3.39,3.39,0,0,1,.8.2,1.51,1.51,0,0,1,.65.46,3.56,3.56,0,0,1,.46.8,8.4,8.4,0,0,1,.38,3,7.55,7.55,0,0,1-.52,3.22,1.75,1.75,0,0,1-.67.74,2.66,2.66,0,0,1-.9.34,6.39,6.39,0,0,1-1.12.08,9.07,9.07,0,0,1-1,0,3.6,3.6,0,0,1-.81-.2,1.46,1.46,0,0,1-.65-.44A3.2,3.2,0,0,1,44.2,97.5Zm.31-5.18a5.76,5.76,0,0,0-.16,1q0,.57,0,1.57a10,10,0,0,0,.14,1.76,2.42,2.42,0,0,0,.5,1.18,1.67,1.67,0,0,0,.84.54,5.34,5.34,0,0,0,1.3.13,4.86,4.86,0,0,0,1.3-.14,1.75,1.75,0,0,0,.84-.55,2.43,2.43,0,0,0,.5-1.18,11,11,0,0,0,.14-2,12.15,12.15,0,0,0-.13-1.94,5,5,0,0,0-.32-1.18,1.35,1.35,0,0,0-.58-.64,2.18,2.18,0,0,0-.75-.27,6.09,6.09,0,0,0-.88-.05h-.74a4.42,4.42,0,0,0-.54.07,1.35,1.35,0,0,0-.49.17,2.88,2.88,0,0,0-.39.31,1.32,1.32,0,0,0-.33.49A6.24,6.24,0,0,0,44.51,92.32Z"/><path class="c" d="M53.57,98.92V90.13h.52L59.17,98V90.13h.49v8.78h-.49l-5.1-7.86v7.86Z"/><path class="c" d="M62.55,98.92l3.26-8.78h.56l3.13,8.78h-.56l-1-2.83H64.13l-1,2.83Zm1.76-3.32h3.47l-1.69-4.81Z"/><path class="c" d="M72.44,97.41V90.13h.49v7.27q0,.68.37.86a1.66,1.66,0,0,0,.77.16h3.44v.49H74.07a2.21,2.21,0,0,1-1.1-.24A1.34,1.34,0,0,1,72.44,97.41Z"/><path class="c" d="M27.9,121.6H43.55a14.26,14.26,0,0,1,.17,2.37,15.21,15.21,0,0,1-15.44,15.57,15.59,15.59,0,1,1,12.34-24.94S37,117.43,37,117.39a10.57,10.57,0,0,0-8.69-4.73c-5.89,0-10.71,5.07-10.71,11.31s4.82,11.27,10.71,11.27c6.06,0,10.41-4,10.71-9.59H27.9Z"/><path class="c" d="M62.34,108.36A15.59,15.59,0,1,1,46.9,124,15.49,15.49,0,0,1,62.34,108.36Zm0,26.88C68.23,135.23,73,130.16,73,124s-4.82-11.31-10.71-11.31S51.63,117.73,51.63,124,56.45,135.23,62.34,135.23Z"/><path class="c" d="M14.75,153q0-2.76.84-3.7a2.66,2.66,0,0,1,2.08-.77,14.94,14.94,0,0,1,2.69.29v.36l-.35,0-.37,0-.46,0-.5,0q-.42,0-1.16,0a2.26,2.26,0,0,0-1.25.32q-1,.68-1,3.67,0,4,2.44,4,1.12,0,2.28-.08l.4,0v.35a14.7,14.7,0,0,1-2.69.26Q14.76,157.49,14.75,153Z"/><path class="c" d="M26.06,155.95V150.2a1.37,1.37,0,0,1,1.44-1.56h.07l3.65.14v.35H27.57q-1,0-1,1.07v2.62l4.19.08v.35l-4.19.08v2.62q0,.68.37.88a1.77,1.77,0,0,0,.77.14h3.53v.35l-3.53.14h-.23a2.35,2.35,0,0,1-.39,0,1.55,1.55,0,0,1-.49-.19A1.35,1.35,0,0,1,26.06,155.95Z"/><path class="c" d="M37.05,157.42v-8.78h.52l5.08,7.86v-7.86h.49v8.78h-.49l-5.1-7.86v7.86Z"/><path class="c" d="M48.55,149.13v-.49h6.18v.49H51.85v8.29h-.49v-8.29Z"/><path class="c" d="M59.91,155.95V150.2a1.37,1.37,0,0,1,1.44-1.56h.07l3.65.14v.35H61.42q-1,0-1,1.07v2.62l4.19.08v.35l-4.19.08v2.62q0,.68.37.88a1.77,1.77,0,0,0,.77.14h3.53v.35l-3.53.14h-.23a2.35,2.35,0,0,1-.39,0,1.55,1.55,0,0,1-.49-.19A1.36,1.36,0,0,1,59.91,155.95Z"/><path class="c" d="M70.61,157.42v-8.78h3.46a1.89,1.89,0,0,1,1.64.7,3.09,3.09,0,0,1,.44,1.79q0,1.78-.86,2.27a2,2,0,0,1-.91.24l1.9,3.79h-.52l-1.92-3.78a26.21,26.21,0,0,1-2.74-.13v3.91Zm.49-4.3h3a2.52,2.52,0,0,0,.6-.06,1.27,1.27,0,0,0,.48-.25,2,2,0,0,0,.5-1.63,2.26,2.26,0,0,0-.43-1.64,1.64,1.64,0,0,0-1.15-.4h-3Z"/><path class="a" d="M13.77,175.52H15l1.3,4.34,1.06-4.34h1.2L18.11,177l.93,2.86,1.07-4.37h1.18l-1.61,5.86h-1.3L17.6,179l-.69,2.4h-1.3Z"/><path class="a" d="M20.71,181.37l2-5.86H24l1.9,5.86H24.67l-.42-1.3H22.33l-.42,1.3Zm1.92-2.29H24l-.66-2.1Z"/><path class="a" d="M26.13,177.49V177a1.42,1.42,0,0,1,.46-1.19,1.87,1.87,0,0,1,1.13-.32h.4c.21,0,.51,0,.9.06a5.84,5.84,0,0,1,1,.17v.88q-.91-.08-1.45-.08h-.58a1.1,1.1,0,0,0-.53.1q-.17.1-.17.47v.29a.57.57,0,0,0,.14.45.79.79,0,0,0,.49.11h.93a1.2,1.2,0,0,1,1.22.73,2,2,0,0,1,.16.82v.39a1.38,1.38,0,0,1-.71,1.4,2.09,2.09,0,0,1-.9.18,8.37,8.37,0,0,1-2.26-.24v-.88q.88.09,1.54.09l.76,0a.88.88,0,0,0,.22-.06.41.41,0,0,0,.24-.42v-.31q0-.41-.26-.51a.75.75,0,0,0-.26,0h-.9A1.35,1.35,0,0,1,26.13,177.49Z"/><path class="a" d="M30.94,181.37v-5.86h1.12V178h2v-2.51h1.12v5.86H34.07v-2.32h-2v2.32Z"/><path class="a" d="M36,181.37v-5.86h1.12v5.86Z"/><path class="a" d="M38,181.37v-5.86h1.14l2.32,3.78v-3.78h1.12v5.86H41.44l-2.33-3.74v3.74Z"/><path class="a" d="M43.45,180.2a4.28,4.28,0,0,1-.16-.82q0-.41,0-1a9.41,9.41,0,0,1,0-1,4,4,0,0,1,.17-.81,1.88,1.88,0,0,1,.34-.64,1.67,1.67,0,0,1,1.36-.54,11,11,0,0,1,1.16.05,8.69,8.69,0,0,1,1.09.2v.87l-.13,0-.33,0-.44,0q-.58,0-1.08,0a.85.85,0,0,0-.85.43,4,4,0,0,0-.21,1.57,4,4,0,0,0,.19,1.53.83.83,0,0,0,.82.39,1.43,1.43,0,0,0,.49-.09,1.78,1.78,0,0,0,.38-.18l.13-.1v-1h-.82v-.71A3.87,3.87,0,0,1,47,178l.54,0v3.31h-.8l-.3-.39a1.35,1.35,0,0,1-.6.34,2.26,2.26,0,0,1-1.47,0,1.4,1.4,0,0,1-.56-.41A1.93,1.93,0,0,1,43.45,180.2Z"/><path class="a" d="M48.08,176.55v-1h4.33v1H50.79v4.82H49.67v-4.82Z"/><path class="a" d="M52.94,179.93a5.24,5.24,0,0,1-.09-.64q0-.36,0-.87a7.31,7.31,0,0,1,.06-1,4.31,4.31,0,0,1,.16-.77,1.75,1.75,0,0,1,.28-.54,1.8,1.8,0,0,1,.36-.35,1.39,1.39,0,0,1,.44-.2,3.14,3.14,0,0,1,.88-.12l.67,0a3.19,3.19,0,0,1,.45.07,1.42,1.42,0,0,1,.4.15,2.19,2.19,0,0,1,.34.24,1.16,1.16,0,0,1,.28.38,3.33,3.33,0,0,1,.2.52,4.88,4.88,0,0,1,.18,1.38,9.39,9.39,0,0,1-.06,1.22,4.65,4.65,0,0,1-.16.74,1.74,1.74,0,0,1-.26.53,1.69,1.69,0,0,1-.34.35,1.35,1.35,0,0,1-.44.2,4.59,4.59,0,0,1-1.56.11,2.28,2.28,0,0,1-.72-.12,2.5,2.5,0,0,1-.39-.2,1.06,1.06,0,0,1-.28-.26,2.41,2.41,0,0,1-.22-.38A2.28,2.28,0,0,1,52.94,179.93ZM54,177.28a4.94,4.94,0,0,0-.06.51q0,.3,0,.74t0,.76a2.46,2.46,0,0,0,.11.54.66.66,0,0,0,.23.34,1.47,1.47,0,0,0,.86.2,1.4,1.4,0,0,0,.84-.21q.39-.3.39-1.68a4.87,4.87,0,0,0-.1-1.24,2,2,0,0,0-.18-.43.57.57,0,0,0-.24-.2,1.5,1.5,0,0,0-.58-.1h-.47l-.28.05a.51.51,0,0,0-.23.12,1.1,1.1,0,0,0-.29.58Z"/><path class="a" d="M58.28,181.37v-5.86h1.14l2.32,3.78v-3.78h1.12v5.86H61.73l-2.33-3.74v3.74Z"/><path class="a" d="M63.73,181.17v-.7c0-.14.07-.22.2-.22h.67c.13,0,.19.07.19.22v1a.69.69,0,0,1-.11.4.46.46,0,0,1-.26.2,1.15,1.15,0,0,1-.33.06l-.22,0-.1,0v-.38a.32.32,0,0,0,.17,0,.18.18,0,0,0,.08-.17v-.11h-.09a.2.2,0,0,1-.14-.05A.19.19,0,0,1,63.73,181.17Z"/><path class="a" d="M67.79,181.37v-5.86h2.49q2,0,2,3a3.1,3.1,0,0,1-.87,2.53,1.78,1.78,0,0,1-1.16.38Zm3.4-2.91q0-1.46-.46-1.8a.88.88,0,0,0-.54-.15H68.91v3.86h1.28Q71.19,180.37,71.19,178.46Z"/><path class="a" d="M73.29,176.24a1.52,1.52,0,0,1,.89-.7,2.6,2.6,0,0,1,.7-.09,7.2,7.2,0,0,1,2,.26v.88l-.22,0-.24,0-.3,0-.32,0-.67,0a2.24,2.24,0,0,0-.46,0,.86.86,0,0,0-.32.14.62.62,0,0,0-.22.32,4.92,4.92,0,0,0-.16,1.48,3.37,3.37,0,0,0,.24,1.47.92.92,0,0,0,.9.45q.75,0,1.52,0l.26,0v.87a6.39,6.39,0,0,1-1.86.22h-.18a1.66,1.66,0,0,1-1.53-.77,4.44,4.44,0,0,1-.46-2.26A4.34,4.34,0,0,1,73.29,176.24Z"/></svg>
