<svg xmlns="http://www.w3.org/2000/svg" viewBox="0 0 171.55 17.82"><defs><style>.a{fill:#333031;}.b{fill:#f15a29;}</style></defs><title>ngc-logo-3-horizontal</title><path class="a" d="M0,15.08V3.37H.93l6.51,10v-10h.91V15.08H7.44L.91,5.08v10Z"/><path class="a" d="M10.14,15.08,14.48,3.37h1l4.13,11.71H18.51l-1.15-3.54h-4.9l-1.22,3.54Zm2.66-4.45H17L15,4.7Z"/><path class="a" d="M19.22,4.28V3.37h8.18v.91H23.71v10.8H22.8V4.28Z"/><path class="a" d="M29.3,15.08V3.37h.91V15.08Z"/><path class="a" d="M32.37,9.29a16.71,16.71,0,0,1,.11-2,9.94,9.94,0,0,1,.3-1.54,3.68,3.68,0,0,1,.5-1.08,3.1,3.1,0,0,1,.65-.7,2.51,2.51,0,0,1,.83-.4,6.27,6.27,0,0,1,1.78-.24q1,0,1.42,0a5.47,5.47,0,0,1,1,.19,2.43,2.43,0,0,1,.82.4,3.22,3.22,0,0,1,.64.7,3.56,3.56,0,0,1,.49,1.07,11.35,11.35,0,0,1,.4,3.14,21.35,21.35,0,0,1-.13,2.69,6.23,6.23,0,0,1-.4,1.58,4.28,4.28,0,0,1-.61,1,2.07,2.07,0,0,1-.88.62,6.63,6.63,0,0,1-2.43.37,5.05,5.05,0,0,1-3-.62,3.15,3.15,0,0,1-1.12-1.73A13.63,13.63,0,0,1,32.37,9.29Zm1.35-3.53a4.82,4.82,0,0,0-.34,1.43,18.3,18.3,0,0,0-.1,2q0,1.09.06,1.78a9,9,0,0,0,.18,1.23,2.91,2.91,0,0,0,.34.89,2.85,2.85,0,0,0,.47.59A1.56,1.56,0,0,0,35,14a5.63,5.63,0,0,0,1.7.22,8.44,8.44,0,0,0,1.53-.1,2.7,2.7,0,0,0,1-.4,1.87,1.87,0,0,0,.69-.86,9.57,9.57,0,0,0,.5-3.57,10.14,10.14,0,0,0-.42-3.5,4.42,4.42,0,0,0-.3-.65,1.35,1.35,0,0,0-.41-.44,3.64,3.64,0,0,0-.47-.28,1.92,1.92,0,0,0-.57-.15,9.07,9.07,0,0,0-1.3-.08q-.75,0-1.12,0a4.3,4.3,0,0,0-.85.18,1.33,1.33,0,0,0-.72.47A5,5,0,0,0,33.72,5.76Z"/><path class="a" d="M43.44,15.08V3.37h.93l6.51,10v-10h.91V15.08h-.91l-6.53-10v10Z"/><path class="a" d="M53.58,15.08,57.92,3.37h1L63,15.08H62L60.8,11.54H55.9l-1.22,3.54Zm2.66-4.45h4.24L58.4,4.7Z"/><path class="a" d="M64.88,13.06V3.37h.91v9.7q0,.75.42,1a2.1,2.1,0,0,0,.85.14h4.72v.91H67.06q-1.6,0-2-.94A2.85,2.85,0,0,1,64.88,13.06Z"/><path class="a" d="M116.27,9.37q0-3.68,1.15-4.94a3.56,3.56,0,0,1,2.75-1q.62,0,1.77.12t2,.28V4.5l-.5,0-.52,0-.65,0-.69,0-1.39,0a3.09,3.09,0,0,0-1.73.42q-1.26.83-1.26,4.66,0,5,3,5,1.58,0,3.52-.13l.22,0V15q-.8.14-1.94.25t-1.81.1Q116.27,15.35,116.27,9.37Z"/><path class="a" d="M125.94,13.29V5.62A2,2,0,0,1,126.49,4a1.94,1.94,0,0,1,1.34-.49H128l4.94.22v.69H128a1.06,1.06,0,0,0-.86.3,1.36,1.36,0,0,0-.24.87V9l5.41.13v.7l-5.41.13v3.36q0,.75.42,1a2.1,2.1,0,0,0,.85.14h4.78v.67l-4.78.24h-.34a2.93,2.93,0,0,1-.51-.06,2.07,2.07,0,0,1-.64-.25A1.85,1.85,0,0,1,125.94,13.29Z"/><path class="a" d="M135.09,15.26V3.54H136l6.51,10v-10h.91V15.26h-.91L136,5.26v10Z"/><path class="a" d="M145.17,4.46V3.54h8.18v.91h-3.68v10.8h-.91V4.46Z"/><path class="a" d="M154.93,13.29V5.62A2,2,0,0,1,155.48,4a2,2,0,0,1,1.34-.49h.13l4.94.22v.69h-4.94a1.06,1.06,0,0,0-.86.3,1.36,1.36,0,0,0-.24.87V9l5.41.13v.7l-5.41.13v3.36q0,.75.42,1a2.1,2.1,0,0,0,.85.14h4.78v.67l-4.78.24h-.34a2.92,2.92,0,0,1-.51-.06,2.08,2.08,0,0,1-.64-.25A1.85,1.85,0,0,1,154.93,13.29Z"/><path class="a" d="M163.71,15.26V3.54h4.8q2.73,0,2.74,3.41a6,6,0,0,1-.17,1.5,3.15,3.15,0,0,1-.4,1,1.92,1.92,0,0,1-.57.54,2.44,2.44,0,0,1-1.07.34l2.51,4.94h-1l-2.5-4.91-1.82-.1-1.62-.11v5.12Zm6.61-8.37a4.53,4.53,0,0,0-.15-1.25,1.59,1.59,0,0,0-.42-.77,1.9,1.9,0,0,0-1.23-.4h-3.89v4.9h3.89A1.56,1.56,0,0,0,170,8.79,3.74,3.74,0,0,0,170.32,6.89Z"/><path class="b" d="M88.1,5.58a5.19,5.19,0,0,0-4.32-2.23,5.42,5.42,0,0,0-5.33,5.58,5.41,5.41,0,0,0,5.33,5.54,5.3,5.3,0,0,0,5.08-3.71H83.56V7.59h9.11a8,8,0,0,1,.11,1.33,9,9,0,0,1-18,0,9,9,0,0,1,9-8.93,8.5,8.5,0,0,1,7.16,3.49Z"/><path class="b" d="M94.08,8.93a9,9,0,0,1,18,0,9,9,0,0,1-18,0Zm14.33,0a5.35,5.35,0,1,0-10.69,0,5.35,5.35,0,1,0,10.69,0Z"/></svg>