<svg class="ngc-logo" xmlns="http://www.w3.org/2000/svg" viewBox="0 0 90.63 180.51">
<style type="text/css">.a { fill: #222; } path.b { fill: #fff; }</style>
<title>ngc-logo</title>
<rect class="a" width="90.63" height="169.26"/><path class="b" d="M9.35,21.41a15.9,15.9,0,0,0,.94,2.4,16.84,16.84,0,0,0,1.4,2.54A11.41,11.41,0,0,0,14.16,29c0.54,0.45,1.1,1,1.7,1.42s1.21,0.9,1.81,1.4c1.27,1,2.64,1.94,4.07,2.94s2.92,2,4.46,3,3.09,2,4.67,3,3.15,2,4.73,2.94c0.8,0.45,1.57.93,2.34,1.4l2.3,1.34c0.76,0.42,1.52.83,2.24,1.26l2.16,1.17c1.42,0.7,2.75,1.41,4,1.9,0.63,0.25,1.21.48,1.84,0.67s1.15,0.34,1.7.48a19.17,19.17,0,0,0,2.87.47,17.57,17.57,0,0,0,1.89.09,5.75,5.75,0,0,0,.67,0l0,0.1a36.11,36.11,0,0,0,7.5-3.74L65,48.9a6.64,6.64,0,0,1-2.23.21,11.65,11.65,0,0,1-3.37-.78c-1.25-.46-2.62-1.07-4.09-1.78-2.94-1.43-6.28-3.26-9.8-5.3s-7.24-4.31-10.89-6.67c-7.3-4.72-14.44-9.7-19.52-13.8a35.25,35.25,0,0,1-3.35-3,8.44,8.44,0,0,1-1.78-3,7.07,7.07,0,0,1-.39-2.06,36.18,36.18,0,0,0-.34,8.62Z"/><path class="b" d="M9.75,11.89l0.11,0a4.24,4.24,0,0,0,.07.76,7.8,7.8,0,0,0,.65,2,7.63,7.63,0,0,0,1.92,2.49c0.45,0.4,1,.76,1.61,1.21S15.3,19.24,16,19.7c1.32,0.92,2.78,1.89,4.32,2.92l4.88,3.19,5.25,3.38c1.78,1.16,3.59,2.33,5.42,3.48l5.44,3.45,5.29,3.3C50,41.55,53.23,43.52,56,45.08c1.4,0.78,2.68,1.48,3.83,2,0.6,0.27,1.07.43,1.61,0.7a9.08,9.08,0,0,0,1.35.49,7.6,7.6,0,0,0,2.06.24,2.94,2.94,0,0,0,.74-0.1l0.06,0.09A35.89,35.89,0,0,0,70.07,45l-0.39.13a9.11,9.11,0,0,1-2.38.35,10.58,10.58,0,0,1-3.66-.66A40.81,40.81,0,0,1,59.19,43c-3.19-1.49-6.78-3.47-10.56-5.7S40.9,32.53,37,29.93c-7.77-5.22-15.35-10.72-20.79-15.17a24.81,24.81,0,0,1-3.54-3.26A6.79,6.79,0,0,1,11.37,8a8.65,8.65,0,0,1,.12-2.31A35.9,35.9,0,0,0,9.75,11.89Z"/><path class="b" d="M55.07,53a19.87,19.87,0,0,1-3-.15,22.34,22.34,0,0,1-3.81-.79,40.51,40.51,0,0,1-4.31-1.61c-1.49-.66-3-1.4-4.63-2.2s-3.2-1.69-4.82-2.62-3.25-1.9-4.85-2.92-3.18-2.07-4.7-3.15-3-2.17-4.41-3.26-2.72-2.2-4-3.26-2.34-2.16-3.31-3.19A14.78,14.78,0,0,1,9.77,24c-0.18-.56-0.32-1-0.41-1.42A36.17,36.17,0,0,0,56.79,52.89,13.57,13.57,0,0,1,55.07,53Z"/><path class="b" d="M29.39,0c0.69,0.51,1.4,1,2.14,1.54,1.64,1.13,3.35,2.36,5.16,3.57l5.58,3.74,5.81,3.8,5.85,3.74c1.92,1.24,3.83,2.44,5.7,3.57s3.64,2.25,5.37,3.25,3.35,1.94,4.88,2.76A39.18,39.18,0,0,0,74.12,28a16.68,16.68,0,0,0,1.84.63,8.26,8.26,0,0,0,1.61.22,3.36,3.36,0,0,0,2.13-.52,1.45,1.45,0,0,0,.5-0.57l0.1,0A36.29,36.29,0,0,0,76.36,0h-47Z"/><path class="b" d="M79.88,28.59a3.69,3.69,0,0,1-2.29.74,11.44,11.44,0,0,1-3.68-.58,39.63,39.63,0,0,1-4.51-1.68A178.7,178.7,0,0,1,46.87,14.56C42.91,12,39,9.38,35.47,6.81,32.21,4.45,29.23,2.17,26.72,0H14.26l-0.33.57,0.09,0a3.84,3.84,0,0,0-.15.82,5.67,5.67,0,0,0,.22,2.21,6.31,6.31,0,0,0,2,2.62,45.69,45.69,0,0,0,3.67,3c1.41,1,3,2.17,4.62,3.32l5.25,3.62L35.29,20l5.87,3.92,5.89,3.9c1.93,1.3,3.84,2.57,5.71,3.77S56.4,34,58.11,35.08s3.32,2.14,4.84,3a33.6,33.6,0,0,0,4.17,2.31,15.94,15.94,0,0,0,3.48,1.05,5.35,5.35,0,0,0,2.29,0,1.7,1.7,0,0,0,.7-0.33c0.57-.71,1.12-1.44,1.64-2.21a36.12,36.12,0,0,0,4.94-10.64A2.12,2.12,0,0,1,79.88,28.59Z"/><path class="b" d="M73,41.76a5.7,5.7,0,0,1-2.44.24,16,16,0,0,1-3.68-.83,36,36,0,0,1-4.48-2,256.55,256.55,0,0,1-22.48-13.4c-4-2.61-7.89-5.33-11.51-7.94s-6.93-5.15-9.66-7.46a42.22,42.22,0,0,1-3.57-3.34,9.07,9.07,0,0,1-1.24-1.64,5.35,5.35,0,0,1-.59-1.66,5.46,5.46,0,0,1,.16-2.45v0a36.09,36.09,0,0,0-1.68,3.53l0.11,0a5.76,5.76,0,0,0-.11.82A9.1,9.1,0,0,0,12,8a6,6,0,0,0,1.45,3A29.9,29.9,0,0,0,17,13.74c1.41,1,3,2.05,4.63,3.2l5.21,3.52,5.59,3.74c1.89,1.29,3.83,2.58,5.78,3.85l5.79,3.82,5.64,3.63L55,38.79c1.69,1,3.33,2,4.83,2.8A46.22,46.22,0,0,0,64,43.66a15,15,0,0,0,1.76.66,12.45,12.45,0,0,0,1.52.32,11.25,11.25,0,0,0,2.27.06,5,5,0,0,0,.82-0.12l0,0.06a36.12,36.12,0,0,0,2.74-3Z"/><path class="b" d="M6.56,93.36v-11H8.3l6.16,8.76V82.36H16v11H14.3l-6.2-8.81v8.81H6.56Z"/><path class="b" d="M17.89,93.36l4.39-11h1.5l4.37,11H26.5l-1.18-3.09H20.73l-1.18,3.09H17.89Zm3.38-4.52h3.5L23,84.28Z"/><path class="b" d="M27.58,83.79V82.36h8.94v1.43H32.81v9.57H31.27V83.79H27.58Z"/><path class="b" d="M38.31,93.36v-11h1.54v11H38.31Z"/><path class="b" d="M42.53,90.23a9.13,9.13,0,0,1,0-4.75,4.8,4.8,0,0,1,.81-1.63,4,4,0,0,1,1.2-1,4.74,4.74,0,0,1,1.37-.51,7.94,7.94,0,0,1,2.85,0,4.73,4.73,0,0,1,1.37.51,4,4,0,0,1,1.2,1,4.81,4.81,0,0,1,.81,1.63,9.15,9.15,0,0,1,0,4.75,4.8,4.8,0,0,1-.81,1.63,4,4,0,0,1-1.2,1,4.73,4.73,0,0,1-1.37.51,7.94,7.94,0,0,1-2.85,0,4.74,4.74,0,0,1-1.37-.51,4,4,0,0,1-1.2-1A4.79,4.79,0,0,1,42.53,90.23ZM44,86a8,8,0,0,0,0,3.78A3.82,3.82,0,0,0,44.54,91a2.44,2.44,0,0,0,.83.71,3.13,3.13,0,0,0,.95.34,6.41,6.41,0,0,0,1,.07,6.49,6.49,0,0,0,1-.07,3.13,3.13,0,0,0,.95-0.34A2.44,2.44,0,0,0,50.14,91a3.78,3.78,0,0,0,.55-1.24,8.18,8.18,0,0,0,0-3.78,3.78,3.78,0,0,0-.55-1.24A2.45,2.45,0,0,0,49.3,84a3.13,3.13,0,0,0-.95-0.34,6.49,6.49,0,0,0-1-.07,6.41,6.41,0,0,0-1,.07,3.13,3.13,0,0,0-.95.34,2.45,2.45,0,0,0-.83.71A3.83,3.83,0,0,0,44,86Z"/><path class="b" d="M54.74,93.36v-11h1.75l6.16,8.76V82.36h1.54v11h-1.7l-6.2-8.81v8.81H54.74Z"/><path class="b" d="M66.08,93.36l4.39-11H72l4.37,11H74.69l-1.18-3.09H68.92l-1.18,3.09H66.08Zm3.38-4.52H73l-1.75-4.57Z"/><path class="b" d="M78.16,93.36v-11H79.7v9.57h5.46v1.43h-7Z"/><path class="b" d="M8.23,119.85q0-19.48,17.63-19.48a30.68,30.68,0,0,1,12,2.36v4a28.05,28.05,0,0,0-11.51-2.46q-7.23,0-10.59,3.77t-3.36,11.84q0,8.13,3.36,11.87t10.59,3.74A27.52,27.52,0,0,0,35,134.1V122.19H25.84v-4H39.12v18.22a30.61,30.61,0,0,1-13.26,2.91Q8.23,139.33,8.23,119.85Z"/><path class="b" d="M46.8,119.85q0-19.48,17.63-19.48t17.66,19.48q0,19.48-17.66,19.48T46.8,119.85ZM54.17,108q-3.25,3.76-3.25,11.86t3.25,11.86q3.25,3.76,10.26,3.76t10.3-3.76Q78,128,78,119.85T74.73,108q-3.24-3.76-10.3-3.76T54.17,108Z"/><path class="b" d="M7.81,157a12,12,0,0,1,0-6,6.17,6.17,0,0,1,1-2.08,4.87,4.87,0,0,1,1.5-1.26,6,6,0,0,1,1.74-.65,9.58,9.58,0,0,1,1.81-.16,11.57,11.57,0,0,1,4.29.83v1.81a9.88,9.88,0,0,0-4.06-.88,4.55,4.55,0,0,0-3.6,1.28,8.19,8.19,0,0,0,0,8.26,4.52,4.52,0,0,0,3.6,1.29,9.88,9.88,0,0,0,4.06-.88v1.8a11.45,11.45,0,0,1-4.29.84,9.58,9.58,0,0,1-1.81-.16,6,6,0,0,1-1.74-.65A4.85,4.85,0,0,1,8.81,159,6.17,6.17,0,0,1,7.81,157Z"/><path class="b" d="M21,161V147h9.14v1.83H22.94V153h6.32v1.83H22.94v4.27h7.18V161H21Z"/><path class="b" d="M33,161V147H35.2L43,158.1V147h2v14H42.83l-7.9-11.22V161H33Z"/><path class="b" d="M47.3,148.78V147H58.68v1.83H54V161H52V148.78H47.3Z"/><path class="b" d="M61,161V147h9.14v1.83H62.91V153h6.32v1.83H62.91v4.27h7.18V161H61Z"/><path class="b" d="M73,161V147h5.17a5.68,5.68,0,0,1,3.7,1.1,3.81,3.81,0,0,1,1.35,3.14,4,4,0,0,1-.9,2.73,4.59,4.59,0,0,1-2.24,1.39L83.8,161H81.49l-3.38-5.33H75V161H73Zm2-7.16h3.13a3.4,3.4,0,0,0,2.5-.71,2.58,2.58,0,0,0,.67-1.84q0-2.57-3.25-2.57H75v5.13Z"/><path class="a" d="M10.42,174.28h1l1.22,4,1.29-4h0.83L16,178.16l1.19-3.88h1l-1.71,5.34H15.52l-1.19-3.73-1.2,3.73h-1Z"/><path class="a" d="M18.22,179.61l2.12-5.34h1.05l2.12,5.34h-1L22,178.33H19.74l-0.49,1.29h-1Zm1.85-2.15h1.59l-0.79-2.09Z"/><path class="a" d="M24.21,175.78a1.35,1.35,0,0,1,.54-1.17,2.26,2.26,0,0,1,1.36-.39,3.08,3.08,0,0,1,1.43.37v0.94a2.36,2.36,0,0,0-1.32-.41,1.67,1.67,0,0,0-.75.15,0.5,0.5,0,0,0-.31.48,0.46,0.46,0,0,0,.28.42,3.06,3.06,0,0,0,.68.25,7.21,7.21,0,0,1,.8.26,1.51,1.51,0,0,1,.68.54,1.65,1.65,0,0,1,.28,1,1.26,1.26,0,0,1-.54,1.05,2.09,2.09,0,0,1-1.3.41,3.36,3.36,0,0,1-1.76-.45v-1a2.51,2.51,0,0,0,1.54.51q1.1,0,1.1-.61a0.6,0.6,0,0,0-.2-0.46,1.23,1.23,0,0,0-.5-0.27l-0.65-.21a6.9,6.9,0,0,1-.65-0.26,1.21,1.21,0,0,1-.5-0.44A1.31,1.31,0,0,1,24.21,175.78Z"/><path class="a" d="M29,179.61v-5.34h1v2.21h2.27v-2.21h1v5.34h-1V177.4H29.94v2.21H29Z"/><path class="a" d="M34.58,179.61v-5.34h1v5.34h-1Z"/><path class="a" d="M36.89,179.61v-5.34H38l2.74,4v-4h1v5.34H40.61l-2.76-4v4h-1Z"/><path class="a" d="M42.83,177A3.93,3.93,0,0,1,43,175.8a2.33,2.33,0,0,1,.39-0.79,1.93,1.93,0,0,1,.58-0.48,2.3,2.3,0,0,1,.66-0.25,3.71,3.71,0,0,1,.7-0.06,5,5,0,0,1,1.82.36v0.88a4.39,4.39,0,0,0-1.72-.38,3.1,3.1,0,0,0-.5,0,1.41,1.41,0,0,0-.43.15,1.06,1.06,0,0,0-.36.32,1.64,1.64,0,0,0-.24.54,3.22,3.22,0,0,0-.09.82,3.26,3.26,0,0,0,.09.82,1.64,1.64,0,0,0,.24.54,1.06,1.06,0,0,0,.36.32,1.39,1.39,0,0,0,.44.15,3.11,3.11,0,0,0,.49,0,3.65,3.65,0,0,0,.95-0.14v-1.27H45.18v-0.85h2.14v2.66a4.42,4.42,0,0,1-1.94.46h0a3.83,3.83,0,0,1-.71-0.06,2.36,2.36,0,0,1-.68-0.25,2,2,0,0,1-.59-0.48,2.26,2.26,0,0,1-.4-0.79A3.89,3.89,0,0,1,42.83,177Z"/><path class="a" d="M48,175.24v-1h4.38v1H50.65v4.38h-1v-4.37H48Z"/><path class="a" d="M52.77,176.95a3.93,3.93,0,0,1,.15-1.15,2.32,2.32,0,0,1,.39-0.79,1.94,1.94,0,0,1,.58-0.48,2.29,2.29,0,0,1,.66-0.25,3.94,3.94,0,0,1,1.4,0,2.29,2.29,0,0,1,.66.25,2,2,0,0,1,.58.48,2.28,2.28,0,0,1,.4.79,4.42,4.42,0,0,1,0,2.3,2.24,2.24,0,0,1-.4.79,2,2,0,0,1-.58.48,2.3,2.3,0,0,1-.66.25,3.94,3.94,0,0,1-1.4,0,2.3,2.3,0,0,1-.66-0.25,2,2,0,0,1-.58-0.48,2.28,2.28,0,0,1-.39-0.79A4,4,0,0,1,52.77,176.95Zm1,0a3.49,3.49,0,0,0,.12,1,1.14,1.14,0,0,0,.35.58,1.32,1.32,0,0,0,.48.25,2.22,2.22,0,0,0,.58.07,2.76,2.76,0,0,0,.47,0,1.35,1.35,0,0,0,.41-0.15,0.94,0.94,0,0,0,.34-0.32,1.86,1.86,0,0,0,.22-0.56,4.06,4.06,0,0,0,0-1.82,1.12,1.12,0,0,0-.36-0.58,1.31,1.31,0,0,0-.48-0.25,2.36,2.36,0,0,0-.58-0.06,2.7,2.7,0,0,0-.46,0,1.36,1.36,0,0,0-.41.15,1,1,0,0,0-.34.32,1.81,1.81,0,0,0-.22.55A3.4,3.4,0,0,0,53.73,176.94Z"/><path class="a" d="M58.88,179.61v-5.34H60l2.74,4v-4h1v5.34H62.6l-2.76-4v4h-1Z"/><path class="a" d="M65,180.51l0.59-1.57h0.84l-0.71,1.57H65Z"/><path class="a" d="M70.43,179.61v-5.34h1.84a2.46,2.46,0,0,1,1.88.68,3.41,3.41,0,0,1,0,4,2.46,2.46,0,0,1-1.88.68H70.43Zm1-.86h0.88a1.51,1.51,0,0,0,1.2-.42,2.8,2.8,0,0,0,0-2.77,1.51,1.51,0,0,0-1.2-.42H71.39v3.61Z"/><path class="a" d="M75.92,178.1a4.43,4.43,0,0,1,0-2.3,2.33,2.33,0,0,1,.39-0.79,1.93,1.93,0,0,1,.58-0.48,2.3,2.3,0,0,1,.66-0.25,3.71,3.71,0,0,1,.7-0.06,4.37,4.37,0,0,1,1.62.32v0.9a3.62,3.62,0,0,0-1.53-.35,2.55,2.55,0,0,0-.62.06,1.4,1.4,0,0,0-.5.25,1.13,1.13,0,0,0-.37.57,3.88,3.88,0,0,0,0,2,1.13,1.13,0,0,0,.37.57,1.4,1.4,0,0,0,.5.25,2.55,2.55,0,0,0,.62.06,3.62,3.62,0,0,0,1.53-.35v0.89a4.32,4.32,0,0,1-1.62.32,3.71,3.71,0,0,1-.7-0.06,2.3,2.3,0,0,1-.66-0.25,1.93,1.93,0,0,1-.58-0.48A2.33,2.33,0,0,1,75.92,178.1Z"/></svg>

