<?xml version="1.0" standalone="no"?>
<!DOCTYPE svg PUBLIC "-//W3C//DTD SVG 20010904//EN"
 "http://www.w3.org/TR/2001/REC-SVG-20010904/DTD/svg10.dtd">
<svg version="1.0" xmlns="http://www.w3.org/2000/svg"
 width="260.000000pt" height="260.000000pt" viewBox="0 0 260.000000 260.000000"
 preserveAspectRatio="xMidYMid meet">
<metadata>
Created by potrace 1.11, written by Peter Selinger 2001-2013
</metadata>
<g transform="translate(0.000000,260.000000) scale(0.100000,-0.100000)"
fill="#000000" stroke="none">
<path d="M0 1300 l0 -1300 1300 0 1300 0 0 1300 0 1300 -144 0 -145 0 50 -104
c27 -57 61 -149 76 -203 53 -201 39 -569 -23 -610 -59 -38 -171 -5 -373 108
-258 146 -804 494 -1102 704 -134 93 -155 105 -192 105 l-42 -1 30 -25 c165
-140 566 -417 835 -578 176 -105 507 -274 609 -310 98 -35 179 -44 220 -23 31
16 32 16 25 -6 -23 -78 -72 -187 -115 -258 -84 -141 -107 -156 -201 -138 -113
22 -204 77 -868 519 -683 455 -877 595 -926 670 -22 32 -25 48 -22 94 l3 56
-147 0 -148 0 0 -1300z m293 1124 c79 -152 894 -728 1484 -1048 168 -91 254
-125 345 -134 l70 -7 -40 -42 c-35 -38 -44 -43 -83 -43 -99 1 -208 48 -454
195 -259 156 -1138 740 -1293 859 -95 73 -124 177 -81 283 l24 58 6 -46 c4
-25 14 -59 22 -75z m-50 -183 c33 -50 106 -111 360 -302 362 -272 816 -563
1092 -702 171 -85 250 -110 335 -105 38 2 70 3 70 2 0 -1 -30 -25 -66 -53 -57
-44 -73 -51 -111 -51 -52 0 -148 39 -278 112 -230 131 -1117 697 -1319 842
-160 116 -188 180 -145 336 l24 85 6 -62 c4 -43 14 -75 32 -102z m-73 -136
c27 -83 231 -251 640 -524 389 -261 771 -480 955 -548 22 -8 69 -18 105 -21
l65 -7 -109 -54 -108 -54 -82 6 c-152 11 -297 73 -615 264 -358 215 -689 447
-770 540 -51 58 -100 156 -111 226 -9 58 -1 233 10 220 4 -4 13 -26 20 -48z
m47 -406 c151 -219 774 -640 1137 -768 53 -19 130 -36 190 -43 l101 -12 -75
-19 c-98 -25 -330 -34 -442 -17 -375 55 -723 315 -882 661 -42 91 -82 217 -90
284 l-7 50 19 -46 c10 -25 33 -66 49 -90z"/>
</g>
</svg>
